<?xml version="1.0" standalone="no"?>
<!DOCTYPE svg PUBLIC "-//W3C//DTD SVG 20010904//EN"
 "http://www.w3.org/TR/2001/REC-SVG-20010904/DTD/svg10.dtd">
<svg version="1.0" xmlns="http://www.w3.org/2000/svg"
 width="1024.000000pt" height="1024.000000pt" viewBox="0 0 1024.000000 1024.000000"
 preserveAspectRatio="xMidYMid meet">
<metadata>
Created by potrace 1.11, written by Peter Selinger 2001-2013
</metadata>
<g transform="translate(0.000000,1024.000000) scale(0.100000,-0.100000)"
fill="#000000" stroke="none">
<path d="M3849 9176 c-2 -2 -103 -6 -224 -10 -121 -3 -238 -8 -260 -10 -22 -2
-74 -7 -114 -11 -41 -3 -77 -8 -80 -9 -4 -2 -31 -7 -61 -10 -86 -10 -345 -65
-384 -81 -20 -9 -39 -15 -43 -15 -30 0 -259 -88 -355 -136 -140 -70 -311 -178
-366 -231 -7 -7 -18 -13 -23 -13 -20 0 -279 -270 -352 -367 -42 -56 -77 -105
-77 -108 0 -2 -19 -35 -43 -72 -101 -160 -242 -518 -272 -695 -3 -18 -12 -60
-20 -94 -8 -34 -17 -88 -20 -120 -4 -32 -8 -61 -10 -64 -4 -7 -20 -165 -29
-290 -34 -466 -47 -1477 -32 -2530 4 -245 8 -470 11 -500 4 -59 15 -291 20
-455 4 -141 12 -232 31 -360 35 -240 114 -483 237 -735 21 -44 98 -173 137
-230 103 -151 325 -367 517 -505 149 -106 392 -224 588 -285 72 -23 246 -67
295 -75 19 -3 42 -8 50 -10 63 -18 338 -49 530 -60 52 -3 113 -8 135 -10 111
-12 681 -20 1490 -20 960 0 1356 7 1675 29 41 3 113 8 160 11 47 3 103 8 125
10 22 3 58 8 80 10 108 14 231 37 370 70 36 9 160 46 180 55 11 5 57 22 102
39 106 40 219 95 330 162 90 54 195 128 201 142 2 4 7 7 12 7 5 0 26 17 48 37
22 21 59 56 83 79 106 98 230 250 309 379 46 76 149 278 170 335 7 19 18 49
25 65 24 56 84 260 109 370 37 170 52 272 71 505 26 318 27 3403 1 3480 -3 8
-7 58 -10 110 -3 52 -7 104 -10 115 -2 11 -7 45 -11 75 -4 30 -9 62 -10 71 -2
9 -6 32 -9 50 -21 131 -125 492 -149 516 -4 3 -7 12 -7 19 0 21 -99 220 -158
318 -54 90 -145 215 -198 272 -16 17 -47 51 -70 75 -268 289 -677 510 -1129
610 -125 28 -176 37 -232 44 -26 3 -59 8 -73 11 -36 6 -106 12 -370 31 -73 5
-2886 14 -2891 9z m2617 -729 c244 -15 293 -18 339 -23 28 -2 75 -7 105 -10
30 -3 70 -7 88 -10 18 -2 54 -6 80 -9 26 -3 70 -10 97 -15 28 -5 65 -12 82
-15 331 -54 643 -233 844 -485 109 -136 221 -362 254 -510 25 -112 47 -224 51
-260 2 -25 6 -54 8 -65 2 -11 7 -49 11 -85 3 -36 8 -78 10 -95 5 -38 14 -166
20 -270 16 -280 19 -532 19 -1470 0 -916 -4 -1250 -19 -1475 -2 -30 -6 -98 -9
-150 -4 -52 -8 -108 -11 -125 -3 -16 -7 -55 -10 -85 -13 -122 -24 -211 -30
-230 -2 -8 -7 -31 -10 -50 -3 -19 -8 -42 -10 -50 -2 -8 -6 -26 -9 -40 -9 -56
-50 -179 -84 -255 -134 -297 -368 -535 -670 -680 -119 -57 -308 -108 -476
-130 -27 -3 -52 -8 -55 -10 -4 -2 -40 -6 -80 -10 -41 -4 -82 -8 -92 -10 -15
-3 -117 -11 -269 -21 -223 -14 -539 -18 -1505 -18 -989 0 -1300 4 -1505 19
-30 2 -95 7 -145 10 -49 3 -110 8 -135 12 -25 3 -56 6 -70 8 -167 19 -392 63
-484 95 -61 22 -227 99 -236 109 -3 4 -16 11 -30 17 -38 17 -168 118 -234 181
-114 111 -221 261 -293 413 -55 115 -117 393 -149 665 -3 33 -8 69 -10 80 -4
18 -11 105 -20 225 -14 196 -18 578 -18 1555 -1 1190 5 1448 40 1739 3 26 7
62 8 80 4 32 16 117 22 151 4 22 12 67 18 105 6 39 44 181 60 226 100 286 297
537 537 685 30 19 64 40 75 47 10 6 30 17 43 23 14 5 52 23 85 38 120 55 283
95 511 126 22 3 56 7 75 10 19 3 58 7 85 9 28 3 79 7 115 10 112 10 190 15
370 22 96 3 176 7 177 8 5 4 2360 -3 2439 -7z"/>
<path d="M7235 7759 c-189 -26 -371 -195 -401 -369 -10 -61 -6 -176 7 -219 35
-116 113 -218 217 -287 147 -98 339 -102 496 -10 52 31 142 127 164 176 9 19
23 43 31 53 8 9 11 17 8 17 -3 0 1 19 9 43 22 63 22 189 -1 270 -11 37 -23 67
-27 67 -5 0 -8 6 -8 14 0 15 -71 110 -105 139 -96 84 -250 126 -390 106z"/>
<path d="M5057 7204 c-1 -1 -48 -4 -105 -8 -56 -4 -108 -8 -115 -11 -6 -2 -30
-6 -52 -9 -22 -3 -60 -9 -85 -15 -25 -5 -56 -12 -70 -14 -14 -3 -59 -15 -100
-27 -41 -12 -76 -22 -77 -22 -2 1 -111 -43 -173 -70 -113 -49 -349 -190 -406
-243 -6 -5 -31 -26 -55 -45 -75 -59 -282 -271 -345 -355 -290 -382 -425 -800
-418 -1292 5 -385 84 -683 266 -1013 29 -53 121 -190 143 -214 6 -6 28 -34 49
-61 101 -128 346 -350 490 -443 235 -150 533 -266 772 -298 27 -3 57 -8 66 -9
86 -17 406 -23 507 -10 25 3 66 8 91 11 427 52 830 251 1155 570 218 214 332
379 471 679 21 46 90 265 100 315 4 25 8 47 9 50 32 138 39 223 40 445 0 249
-14 380 -61 555 -9 30 -17 62 -19 70 -30 120 -135 348 -227 494 -53 82 -117
168 -130 174 -5 2 -8 8 -8 13 0 21 -217 240 -325 329 -363 296 -784 445 -1283
454 -57 1 -104 1 -105 0z m338 -748 c141 -29 255 -66 335 -110 100 -54 130
-73 190 -115 168 -118 330 -302 428 -486 27 -51 73 -155 77 -176 2 -9 12 -47
23 -85 64 -222 62 -514 -3 -744 -9 -30 -18 -62 -20 -70 -6 -25 -79 -183 -99
-215 -76 -121 -179 -254 -241 -308 -11 -10 -38 -35 -60 -56 -84 -78 -256 -185
-375 -234 -159 -64 -297 -90 -505 -92 -317 -3 -579 83 -824 270 -91 70 -218
198 -271 275 -13 19 -27 37 -30 40 -36 30 -155 262 -175 340 -2 8 -11 40 -19
70 -34 124 -41 198 -40 385 1 97 8 189 17 235 18 89 55 220 66 235 5 5 14 27
21 49 16 50 85 166 154 260 63 85 217 241 279 282 23 16 54 38 69 50 63 51
225 126 373 174 144 47 462 60 630 26z"/>
</g>
</svg>
